HIERARCHY
ROOT Hips
{
	OFFSET 0.000000 71.427986 0.000000
	CHANNELS 6 Xposition Yposition Zposition Xrotation Yrotation Zrotation
	JOINT Pelvis
	{
		OFFSET 0.000000 0.000000 0.000000
		CHANNELS 3 Xrotation Yrotation Zrotation
		JOINT LeftUpLeg
		{
			OFFSET 6.797100 -2.508499 -1.318700
			CHANNELS 3 Xrotation Yrotation Zrotation
			JOINT LeftLeg
			{
				OFFSET 0.069008 -29.241863 0.690200
				CHANNELS 3 Xrotation Yrotation Zrotation
				JOINT LeftFoot
				{
					OFFSET -0.069008 -29.568123 -0.266800
					CHANNELS 3 Xrotation Yrotation Zrotation
					JOINT LeftToeBase
					{
						OFFSET 3.145500 -8.631000 16.059900
						CHANNELS 3 Xrotation Yrotation Zrotation
						End Site
						{
							OFFSET 0.000000 18.501587 0.000000
						}
					}
				}
			}
			JOINT Left_ShortSleeve
			{
				OFFSET 0.265923 -10.480953 1.153800
				CHANNELS 3 Xrotation Yrotation Zrotation
				End Site
				{
					OFFSET 1.725763 19.823879 0.000000
				}
			}
		}
		JOINT RightUpLeg
		{
			OFFSET -6.797100 -2.508499 -1.318700
			CHANNELS 3 Xrotation Yrotation Zrotation
			JOINT RightLeg
			{
				OFFSET -0.082453 -29.241932 0.688000
				CHANNELS 3 Xrotation Yrotation Zrotation
				JOINT RightFoot
				{
					OFFSET 0.082453 -29.568058 -0.264600
					CHANNELS 3 Xrotation Yrotation Zrotation
					JOINT RightToeBase
					{
						OFFSET -3.115300 -8.682800 16.113400
						CHANNELS 3 Xrotation Yrotation Zrotation
						End Site
						{
							OFFSET 0.000000 18.567114 0.000000
						}
					}
				}
			}
			JOINT Right_ShortSleeve
			{
				OFFSET -0.265923 -10.480953 1.153800
				CHANNELS 3 Xrotation Yrotation Zrotation
				End Site
				{
					OFFSET -1.725766 19.823910 0.000000
				}
			}
		}
	}
	JOINT Spine
	{
		OFFSET 0.000000 13.368103 0.470500
		CHANNELS 3 Xrotation Yrotation Zrotation
		JOINT Spine1
		{
			OFFSET 0.147000 13.837402 0.538800
			CHANNELS 3 Xrotation Yrotation Zrotation
			JOINT Spine2
			{
				OFFSET 0.168000 16.242897 -1.435500
				CHANNELS 3 Xrotation Yrotation Zrotation
				JOINT Neck
				{
					OFFSET 0.217200 18.631500 -1.679100
					CHANNELS 3 Xrotation Yrotation Zrotation
					JOINT Head
					{
						OFFSET 0.000000 6.599396 1.385900
						CHANNELS 3 Xrotation Yrotation Zrotation
						JOINT Hat
						{
							OFFSET -0.532200 27.220596 -10.096100
							CHANNELS 3 Xrotation Yrotation Zrotation
							End Site
							{
								OFFSET 0.000000 22.029861 0.000000
							}
						}
						JOINT HairD
						{
							OFFSET -10.777400 17.437393 -1.325900
							CHANNELS 3 Xrotation Yrotation Zrotation
							JOINT HairD1
							{
								OFFSET -3.290299 -11.051193 1.062200
								CHANNELS 3 Xrotation Yrotation Zrotation
								End Site
								{
									OFFSET 0.000000 11.579437 0.000000
								}
							}
						}
						JOINT HairB
						{
							OFFSET -10.777400 17.437393 1.467900
							CHANNELS 3 Xrotation Yrotation Zrotation
							JOINT HairB1
							{
								OFFSET -1.561200 -12.956299 3.590200
								CHANNELS 3 Xrotation Yrotation Zrotation
								End Site
								{
									OFFSET 0.000000 13.534866 0.000000
								}
							}
						}
						JOINT HairA
						{
							OFFSET 9.713100 17.437393 1.467900
							CHANNELS 3 Xrotation Yrotation Zrotation
							JOINT HairA1
							{
								OFFSET 1.561200 -12.956299 3.590200
								CHANNELS 3 Xrotation Yrotation Zrotation
								End Site
								{
									OFFSET 0.000000 13.534866 0.000000
								}
							}
						}
						JOINT HairC
						{
							OFFSET 9.713100 17.437393 -1.325900
							CHANNELS 3 Xrotation Yrotation Zrotation
							JOINT HairC1
							{
								OFFSET 3.290300 -11.051193 1.062200
								CHANNELS 3 Xrotation Yrotation Zrotation
								End Site
								{
									OFFSET 0.000000 11.579437 0.000000
								}
							}
						}
					}
				}
				JOINT LeftShoulder
				{
					OFFSET 5.101800 15.108002 -2.763700
					CHANNELS 3 Xrotation Yrotation Zrotation
					JOINT LeftArm
					{
						OFFSET 9.825497 2.506317 -1.597400
						CHANNELS 3 Xrotation Yrotation Zrotation
						JOINT LeftForeArm
						{
							OFFSET 21.966244 0.000000 0.000000
							CHANNELS 3 Xrotation Yrotation Zrotation
							JOINT LeftHand
							{
								OFFSET 33.879036 0.000000 0.000000
								CHANNELS 3 Xrotation Yrotation Zrotation
								JOINT LeftHandThumb1
								{
									OFFSET 6.715286 -2.359680 3.363841
									CHANNELS 3 Xrotation Yrotation Zrotation
									JOINT LeftHandThumb2
									{
										OFFSET 2.507072 -1.447464 1.447461
										CHANNELS 3 Xrotation Yrotation Zrotation
										JOINT LeftHandThumb3
										{
											OFFSET 2.898338 -1.673355 1.673357
											CHANNELS 3 Xrotation Yrotation Zrotation
											End Site
											{
												OFFSET -0.295959 3.727692 -0.131651
											}
										}
									}
								}
								JOINT LeftHandIndex1
								{
									OFFSET 14.190811 -0.254547 3.840278
									CHANNELS 3 Xrotation Yrotation Zrotation
									JOINT LeftHandIndex2
									{
										OFFSET 3.551727 0.000000 -0.000000
										CHANNELS 3 Xrotation Yrotation Zrotation
										JOINT LeftHandIndex3
										{
											OFFSET 2.894196 0.000000 0.000000
											CHANNELS 3 Xrotation Yrotation Zrotation
											End Site
											{
												OFFSET -1.000603 2.690872 0.366626
											}
										}
									}
								}
								JOINT LeftHandMiddle1
								{
									OFFSET 13.776489 0.000000 0.000000
									CHANNELS 3 Xrotation Yrotation Zrotation
									JOINT LeftHandMiddle2
									{
										OFFSET 3.438232 0.000000 0.000000
										CHANNELS 3 Xrotation Yrotation Zrotation
										JOINT LeftHandMiddle3
										{
											OFFSET 3.691551 0.000000 0.000000
											CHANNELS 3 Xrotation Yrotation Zrotation
											End Site
											{
												OFFSET -1.082298 3.499527 0.457670
											}
										}
									}
								}
								JOINT LeftHandRing1
								{
									OFFSET 13.966164 -0.268127 -3.067488
									CHANNELS 3 Xrotation Yrotation Zrotation
									JOINT LeftHandRing2
									{
										OFFSET 3.162567 0.000000 0.000000
										CHANNELS 3 Xrotation Yrotation Zrotation
										JOINT LeftHandRing3
										{
											OFFSET 3.324348 0.000000 0.000000
											CHANNELS 3 Xrotation Yrotation Zrotation
											End Site
											{
												OFFSET -0.861900 3.184998 0.405154
											}
										}
									}
								}
								JOINT LeftHandPinky1
								{
									OFFSET 13.131393 -0.168503 -5.746925
									CHANNELS 3 Xrotation Yrotation Zrotation
									JOINT LeftHandPinky2
									{
										OFFSET 2.849182 0.000000 0.000000
										CHANNELS 3 Xrotation Yrotation Zrotation
										JOINT LeftHandPinky3
										{
											OFFSET 2.805038 0.000000 0.000000
											CHANNELS 3 Xrotation Yrotation Zrotation
											End Site
											{
												OFFSET -0.882500 2.642609 0.325652
											}
										}
									}
								}
							}
							JOINT Left_Sleeve
							{
								OFFSET 6.592125 -0.646545 0.805568
								CHANNELS 3 Xrotation Yrotation Zrotation
								End Site
								{
									OFFSET -0.000179 20.275787 -0.000000
								}
							}
						}
					}
				}
				JOINT RightShoulder
				{
					OFFSET -5.731700 15.108002 -2.763700
					CHANNELS 3 Xrotation Yrotation Zrotation
					JOINT RightArm
					{
						OFFSET -9.825497 2.506317 -1.597400
						CHANNELS 3 Xrotation Yrotation Zrotation
						JOINT RightForeArm
						{
							OFFSET -21.966242 0.000000 0.000000
							CHANNELS 3 Xrotation Yrotation Zrotation
							JOINT RightHand
							{
								OFFSET -33.879032 0.000000 0.000000
								CHANNELS 3 Xrotation Yrotation Zrotation
								JOINT RightHandThumb1
								{
									OFFSET -6.715286 -2.359680 3.363841
									CHANNELS 3 Xrotation Yrotation Zrotation
									JOINT RightHandThumb2
									{
										OFFSET -2.507072 -1.447464 1.447461
										CHANNELS 3 Xrotation Yrotation Zrotation
										JOINT RightHandThumb3
										{
											OFFSET -2.898338 -1.673355 1.673357
											CHANNELS 3 Xrotation Yrotation Zrotation
											End Site
											{
												OFFSET 0.295959 3.727692 -0.131651
											}
										}
									}
								}
								JOINT RightHandIndex1
								{
									OFFSET -14.190811 -0.254547 3.840278
									CHANNELS 3 Xrotation Yrotation Zrotation
									JOINT RightHandIndex2
									{
										OFFSET -3.551727 0.000000 -0.000000
										CHANNELS 3 Xrotation Yrotation Zrotation
										JOINT RightHandIndex3
										{
											OFFSET -2.894196 0.000000 0.000000
											CHANNELS 3 Xrotation Yrotation Zrotation
											End Site
											{
												OFFSET 1.000603 2.690872 0.366626
											}
										}
									}
								}
								JOINT RightHandMiddle1
								{
									OFFSET -13.776489 0.000000 0.000000
									CHANNELS 3 Xrotation Yrotation Zrotation
									JOINT RightHandMiddle2
									{
										OFFSET -3.438232 0.000000 0.000000
										CHANNELS 3 Xrotation Yrotation Zrotation
										JOINT RightHandMiddle3
										{
											OFFSET -3.691551 0.000000 0.000000
											CHANNELS 3 Xrotation Yrotation Zrotation
											End Site
											{
												OFFSET 1.082298 3.499527 0.457670
											}
										}
									}
								}
								JOINT RightHandRing1
								{
									OFFSET -13.966164 -0.268127 -3.067488
									CHANNELS 3 Xrotation Yrotation Zrotation
									JOINT RightHandRing2
									{
										OFFSET -3.162567 0.000000 0.000000
										CHANNELS 3 Xrotation Yrotation Zrotation
										JOINT RightHandRing3
										{
											OFFSET -3.324348 0.000000 0.000000
											CHANNELS 3 Xrotation Yrotation Zrotation
											End Site
											{
												OFFSET 0.861900 3.184998 0.405154
											}
										}
									}
								}
								JOINT RightHandPinky1
								{
									OFFSET -13.131393 -0.168503 -5.746925
									CHANNELS 3 Xrotation Yrotation Zrotation
									JOINT RightHandPinky2
									{
										OFFSET -2.849182 0.000000 0.000000
										CHANNELS 3 Xrotation Yrotation Zrotation
										JOINT RightHandPinky3
										{
											OFFSET -2.805038 0.000000 0.000000
											CHANNELS 3 Xrotation Yrotation Zrotation
											End Site
											{
												OFFSET 0.882500 2.642609 0.325652
											}
										}
									}
								}
							}
							JOINT Right_Sleeve
							{
								OFFSET -6.592125 -0.646545 0.805568
								CHANNELS 3 Xrotation Yrotation Zrotation
								End Site
								{
									OFFSET 0.000179 20.275787 -0.000000
								}
							}
						}
					}
				}
				JOINT Bind_Right_JacketString
				{
					OFFSET -3.534800 11.969597 7.200700
					CHANNELS 3 Xrotation Yrotation Zrotation
					JOINT Bind_Right_JacketString1
					{
						OFFSET -0.319900 -6.102600 2.794100
						CHANNELS 3 Xrotation Yrotation Zrotation
						End Site
						{
							OFFSET 0.000000 6.719452 0.000000
						}
					}
				}
				JOINT Bind_Left_JacketString
				{
					OFFSET 2.904800 11.969597 7.200700
					CHANNELS 3 Xrotation Yrotation Zrotation
					JOINT Bind_Left_JacketString1
					{
						OFFSET 0.364800 -5.904503 3.186800
						CHANNELS 3 Xrotation Yrotation Zrotation
						End Site
						{
							OFFSET 0.000000 6.719513 0.000000
						}
					}
				}
				JOINT HairE
				{
					OFFSET 5.915200 17.612701 -11.592200
					CHANNELS 3 Xrotation Yrotation Zrotation
					JOINT HairE1
					{
						OFFSET 0.289200 -7.171898 -1.284500
						CHANNELS 3 Xrotation Yrotation Zrotation
						End Site
						{
							OFFSET 0.000000 7.291756 0.000000
						}
					}
				}
				JOINT HairF
				{
					OFFSET -0.864800 17.612701 -11.592200
					CHANNELS 3 Xrotation Yrotation Zrotation
					JOINT HairF1
					{
						OFFSET 0.000000 -14.087097 -2.127501
						CHANNELS 3 Xrotation Yrotation Zrotation
						End Site
						{
							OFFSET 0.000000 14.246841 0.000000
						}
					}
				}
				JOINT HairG
				{
					OFFSET -8.087700 17.612701 -11.592200
					CHANNELS 3 Xrotation Yrotation Zrotation
					JOINT HairG1
					{
						OFFSET -0.293600 -6.081398 -0.910100
						CHANNELS 3 Xrotation Yrotation Zrotation
						End Site
						{
							OFFSET 0.000000 6.156120 0.000000
						}
					}
				}
			}
		}
	}
	JOINT Pouch
	{
		OFFSET 0.000000 4.394501 10.847300
		CHANNELS 3 Xrotation Yrotation Zrotation
		End Site
		{
			OFFSET 0.000000 21.880577 0.000000
		}
	}
	JOINT Bag
	{
		OFFSET -13.229000 4.813004 -0.593300
		CHANNELS 3 Xrotation Yrotation Zrotation
		End Site
		{
			OFFSET 0.000000 21.880577 0.000000
		}
	}
	JOINT OccupyGuyFacialAnim_Joint
	{
		OFFSET 1.000000 -70.206398 -1.655000
		CHANNELS 3 Xrotation Yrotation Zrotation
		End Site
		{
			OFFSET 0.000000 21.880577 0.000000
		}
	}
}
MOTION
Frames: 4
Frame Time: 0.033333
0.150343 42.657730 0.738291 -13.268813 0.239684 0.429025 0.000002 0.000000 0.000000 -73.699859 -2.933470 13.015760 82.152805 4.390184 0.223754 5.461266 -6.995057 -3.491049 0.000000 -0.000000 -0.000000 -0.000000 0.000000 0.000001 -73.808144 4.417971 -9.083448 81.789439 -4.764354 -1.830653 6.325270 -0.024675 5.557178 0.000000 -0.000000 -0.000000 -0.000000 -0.000000 0.000001 6.768884 0.069136 -1.331589 -7.596563 -0.465757 0.334057 -7.599105 -0.404902 0.371510 7.478164 -1.425263 3.746014 -4.279508 -4.297964 0.725052 -0.000001 0.000000 -0.000001 -0.000001 0.000000 -0.000001 -0.000001 0.000000 -0.000001 -0.000001 0.000000 -0.000001 0.000001 0.000001 -0.000000 -0.000001 0.000000 -0.000001 0.000001 0.000001 -0.000000 -0.000001 0.000000 -0.000001 -0.000001 0.000000 -0.000001 0.540340 -6.513246 -4.111584 -18.272247 -40.625272 -17.921692 0.000025 -124.689297 0.000021 -8.704158 -4.550030 28.531718 16.451252 -0.684518 -3.503598 0.201845 11.941034 -27.417742 0.000003 -0.000001 -0.000001 0.068138 0.075888 -0.215214 0.839291 3.023313 -31.023795 0.000001 0.000001 -0.000002 -0.089640 4.865645 3.433506 0.956802 3.210336 -33.184764 0.000001 0.000001 -0.000001 -0.299684 6.143642 5.359048 1.072409 3.380224 -35.195603 -0.000001 0.000001 -0.000002 0.003881 6.038007 1.029356 0.954271 3.206468 -33.139412 -0.000000 -0.000001 -0.000004 0.000001 -0.000000 0.000001 1.274561 7.758290 1.789292 -24.759917 27.902007 39.624342 0.000021 135.210234 -0.000026 17.752562 -13.541875 -25.674196 -1.190022 7.725384 13.619863 2.060674 -23.141355 17.342465 -0.000001 -0.000002 0.000000 2.446917 2.153550 1.702880 0.603066 -2.293956 29.455218 -0.000004 0.000002 -0.000001 -0.016691 -3.380828 -3.085380 1.505915 -3.430859 47.386425 0.000004 0.000000 -0.000003 0.240928 -6.358253 2.629081 0.618623 -2.321258 29.841383 0.000002 -0.000002 -0.000006 -11.600665 -11.624654 13.985382 0.285590 -1.607340 20.148986 -0.000000 -0.000002 0.000000 0.000002 0.000001 -0.000001 0.000000 -0.000000 -0.000000 -0.000001 -0.000000 0.000000 0.000000 -0.000000 -0.000000 0.000000 -0.000000 -0.000000 0.000000 -0.000000 -0.000000 -0.000001 -0.000000 0.000000 0.000000 -0.000000 -0.000000 0.000000 -0.000000 -0.000000 0.000000 -0.000000 -0.000000 -0.000001 -0.000000 0.000000 0.000002 0.000000 0.000000 0.000002 0.000000 0.000000 0.000002 0.000000 0.000000 
0.197595 42.746971 0.680054 -13.827387 0.189392 0.479394 0.000000 0.000000 -0.000000 -72.995618 -2.753221 13.022282 81.954490 4.410903 0.223095 5.496421 -6.993134 -3.388584 0.000000 0.000000 0.000000 -0.000000 0.000000 -0.000001 -73.112271 4.353376 -9.220740 81.546523 -4.599782 -1.829873 6.409597 -0.026411 5.469077 -0.000000 0.000001 0.000000 0.000000 0.000000 -0.000000 6.738934 0.032863 -1.335949 -7.615906 -0.571275 0.275936 -7.618589 -0.511023 0.305786 6.306546 -1.378964 3.771052 -7.347984 -3.959889 0.294552 -0.000001 0.000000 -0.000000 -0.000001 0.000000 -0.000000 -0.000001 0.000000 0.000000 -0.000001 0.000000 -0.000000 -0.000003 0.000000 -0.000000 -0.000001 0.000000 -0.000000 -0.000003 0.000000 -0.000000 -0.000001 0.000000 -0.000000 -0.000001 0.000000 -0.000000 0.440705 -5.405308 -3.188299 -21.878474 -41.682722 -18.308010 0.000014 -122.785614 0.000013 -9.603868 -6.949185 27.759135 16.449138 -0.683006 -3.493720 0.204416 11.940205 -27.416482 0.000000 0.000001 0.000002 0.067930 0.075957 -0.222174 0.839237 3.023219 -31.022726 0.000003 0.000000 -0.000002 -0.089699 4.867861 3.431849 0.956556 3.209946 -33.180202 -0.000000 -0.000000 -0.000003 -0.299378 6.144252 5.354237 1.071895 3.379503 -35.186969 0.000000 0.000001 0.000001 0.003827 6.038586 1.027130 0.953913 3.205918 -33.133043 -0.000001 -0.000000 -0.000002 -0.000000 0.000001 0.000002 1.136019 8.822932 0.156635 -28.679479 25.694975 40.579899 0.000002 134.841157 -0.000016 17.567945 -12.972565 -22.484235 -1.186375 7.716772 13.615679 2.062648 -23.141340 17.349234 -0.000004 0.000001 0.000003 2.446424 2.153424 1.703212 0.603074 -2.293944 29.455160 -0.000001 0.000000 0.000004 -0.017028 -3.386972 -3.085626 1.505479 -3.430445 47.378994 0.000005 -0.000002 -0.000005 0.240952 -6.358115 2.629502 0.618425 -2.320946 29.836814 0.000002 -0.000002 -0.000003 -11.599994 -11.625041 13.984614 0.285502 -1.607086 20.145660 -0.000003 -0.000000 0.000000 0.000001 0.000000 0.000003 0.000001 -0.000000 -0.000000 0.000001 -0.000000 0.000000 0.000001 -0.000000 -0.000000 0.000001 -0.000000 -0.000000 0.000001 -0.000000 -0.000000 0.000001 -0.000000 -0.000000 0.000001 -0.000000 -0.000000 0.000001 -0.000000 -0.000000 0.000001 -0.000000 -0.000000 0.000001 -0.000000 -0.000000 0.000000 0.000000 -0.000000 0.000000 0.000000 -0.000000 0.000000 0.000000 -0.000000 
0.242503 42.733017 0.624624 -14.222356 0.200681 0.583286 0.000001 0.000000 -0.000000 -72.632150 -2.592573 12.930907 81.910333 4.453390 0.222548 5.558098 -6.991392 -3.319006 0.000000 -0.000000 0.000000 0.000000 -0.000000 -0.000001 -72.767046 4.396695 -9.395076 81.517741 -4.462785 -1.829030 6.475699 -0.029382 5.423256 0.000000 0.000000 0.000000 -0.000000 0.000000 -0.000000 6.824003 0.030042 -1.315312 -7.410441 -0.604803 0.297253 -7.413329 -0.545568 0.324905 5.359290 -1.292367 3.541918 -10.853557 -3.691803 -0.155122 0.000000 0.000000 0.000000 0.000000 0.000000 0.000000 0.000000 0.000000 0.000000 0.000000 0.000000 -0.000000 0.000000 0.000000 -0.000000 0.000000 0.000000 -0.000000 0.000000 0.000000 -0.000000 0.000000 0.000000 0.000000 0.000000 0.000000 0.000000 0.419348 -5.291745 -2.772319 -25.145191 -41.540271 -18.215206 0.000021 -122.050249 0.000027 -10.426444 -8.229518 26.492128 16.444543 -0.681091 -3.479681 0.210080 11.939172 -27.416620 0.000003 0.000001 0.000002 0.067503 0.076478 -0.233615 0.839107 3.022987 -31.020120 0.000003 0.000000 -0.000002 -0.089646 4.870525 3.428198 0.956165 3.209352 -33.173283 0.000002 0.000000 -0.000001 -0.298886 6.145223 5.346774 1.071205 3.378518 -35.175208 0.000000 -0.000000 -0.000000 0.003933 6.039602 1.022455 0.953322 3.205027 -33.122562 -0.000002 -0.000000 -0.000004 -0.000003 -0.000001 -0.000002 1.036989 9.547960 -1.506857 -32.280321 23.867751 41.352677 0.000026 134.743308 -0.000035 17.514372 -11.920390 -20.238016 -1.195917 7.713011 13.601377 2.065789 -23.141605 17.360319 0.000001 0.000001 0.000003 2.445807 2.153449 1.703730 0.603052 -2.293938 29.454911 0.000001 -0.000001 0.000002 -0.017327 -3.393106 -3.085840 1.504836 -3.429856 47.368403 0.000003 0.000001 0.000001 0.240998 -6.358489 2.629710 0.618097 -2.320369 29.828659 0.000000 0.000001 0.000002 -11.599470 -11.624990 13.981451 0.285326 -1.606624 20.139568 -0.000003 0.000001 -0.000003 -0.000002 0.000002 0.000005 -0.000003 0.000000 -0.000000 -0.000003 0.000000 -0.000000 -0.000003 0.000000 -0.000000 -0.000003 0.000000 -0.000000 -0.000003 0.000000 -0.000000 -0.000003 0.000000 -0.000000 -0.000003 0.000000 -0.000000 -0.000003 0.000000 -0.000000 -0.000003 0.000000 -0.000000 -0.000003 0.000000 -0.000000 0.000001 0.000000 -0.000000 0.000001 0.000000 -0.000000 0.000001 0.000000 -0.000000 
0.268273 42.664421 0.581718 -14.431864 0.253406 0.658357 -0.000001 -0.000000 -0.000000 -72.556608 -2.509960 12.840671 81.965815 4.461661 0.222143 5.626128 -6.990243 -3.269767 0.000000 -0.000000 -0.000000 -0.000000 -0.000000 -0.000001 -72.692064 4.466103 -9.518529 81.605222 -4.402932 -1.828155 6.527034 -0.031295 5.429339 -0.000000 0.000000 -0.000000 0.000000 0.000000 -0.000001 6.969373 0.050588 -1.279758 -7.085342 -0.581974 0.381104 -7.088537 -0.523861 0.410583 4.803745 -1.225746 3.206204 -13.716020 -3.623126 -0.518314 -0.000000 0.000000 -0.000000 -0.000000 0.000000 -0.000000 -0.000000 0.000000 0.000000 -0.000000 0.000000 -0.000000 -0.000000 -0.000000 0.000000 -0.000000 0.000000 -0.000000 -0.000000 -0.000000 0.000000 -0.000000 0.000000 -0.000000 -0.000000 0.000000 -0.000000 0.452997 -5.970375 -2.544841 -27.173698 -40.386570 -17.587674 -0.000016 -122.180377 0.000002 -10.760954 -8.632694 25.323877 16.435216 -0.679313 -3.458337 0.222356 11.938499 -27.420073 0.000001 -0.000000 0.000001 0.066600 0.077813 -0.252148 0.838800 3.022498 -31.014502 -0.000001 0.000001 -0.000002 -0.089447 4.873930 3.420269 0.955559 3.208413 -33.162331 -0.000001 0.000000 -0.000001 -0.298149 6.146887 5.335045 1.070138 3.377016 -35.157152 0.000001 -0.000000 -0.000001 0.004277 6.041982 1.013644 0.952372 3.203566 -33.105480 -0.000002 0.000000 0.000005 -0.000004 0.000001 0.000002 0.971365 9.867889 -2.996736 -35.152258 22.386503 42.034108 0.000013 134.641661 -0.000006 17.063877 -10.230040 -18.574372 -1.219419 7.710560 13.573084 2.070869 -23.142281 17.378397 -0.000000 -0.000001 -0.000000 2.444925 2.153927 1.705270 0.603008 -2.293849 29.453780 -0.000000 -0.000001 0.000002 -0.017671 -3.399188 -3.086794 1.503827 -3.428939 47.351608 0.000004 0.000003 -0.000004 0.241021 -6.359706 2.629372 0.617540 -2.319380 29.814715 -0.000002 0.000003 0.000005 -11.599333 -11.624185 13.973626 0.285034 -1.605828 20.129128 0.000000 0.000000 -0.000001 0.000002 -0.000001 -0.000000 -0.000001 -0.000000 -0.000000 -0.000001 0.000000 0.000000 -0.000001 -0.000000 -0.000000 -0.000001 -0.000000 -0.000000 -0.000001 -0.000000 -0.000000 -0.000001 0.000000 0.000000 -0.000001 -0.000000 -0.000000 -0.000001 -0.000000 -0.000000 -0.000001 -0.000000 -0.000000 -0.000001 0.000000 0.000000 -0.000001 -0.000000 -0.000000 -0.000001 -0.000000 -0.000000 -0.000001 -0.000000 -0.000000 
